<svg xmlns="http://www.w3.org/2000/svg" viewBox="0 0 197.54 156.86"><title>logo</title><path d="M25.2 41.52a3.76 3.76 0 0 1-3.78-3.78v-14.1c0-4-2.1-5.4-5.34-5.4a8.25 8.25 0 0 0-6.6 3.42v16.08a3.78 3.78 0 0 1-3.84 3.78 3.76 3.76 0 0 1-3.78-3.78v-22.2a3.78 3.78 0 0 1 3.9-3.72 3.74 3.74 0 0 1 3.72 3.72v.43a13.27 13.27 0 0 1 10.14-4.5c6.36 0 9.42 3.6 9.42 9.24v17a3.78 3.78 0 0 1-3.84 3.81zM49.03 41.88c-9.54 0-15.3-7-15.3-15.24s5.76-15.18 15.3-15.18 15.36 7 15.36 15.18-5.77 15.24-15.36 15.24zm0-23.64c-4.74 0-7.38 3.9-7.38 8.4s2.64 8.46 7.38 8.46 7.44-3.9 7.44-8.46-2.71-8.4-7.44-8.4zM82.7 41.88c-9.54 0-15.3-7-15.3-15.24s5.76-15.18 15.3-15.18 15.38 6.96 15.38 15.18S92.3 41.88 82.7 41.88zm0-23.64c-4.74 0-7.38 3.9-7.38 8.4s2.64 8.46 7.38 8.46 7.44-3.9 7.44-8.46-2.7-8.4-7.44-8.4zM110.99 4.5a4.56 4.56 0 1 1-4.56-4.53 4.51 4.51 0 0 1 4.56 4.53zm-4.56 37a3.76 3.76 0 0 1-3.78-3.78V15.54a3.78 3.78 0 0 1 3.9-3.72 3.74 3.74 0 0 1 3.72 3.72v22.2a3.78 3.78 0 0 1-3.84 3.78zM126.66 41.88c-5.34 0-8.22-2.76-8.22-7.92V18.84h-1.86a3.36 3.36 0 0 1-3.3-3.42 3.32 3.32 0 0 1 3.3-3.24h1.86v-4.5a3.84 3.84 0 0 1 7.68 0v4.5h3a3.33 3.33 0 0 1 0 6.66h-3v13.13c0 2.28 1.44 3.18 2.64 3.18h.66a3.13 3.13 0 0 1 3.36 3.3c0 1.87-1.14 3.43-6.12 3.43zM13.74 109.92c-3.54 0-9.48-.9-11.22-3.6a3.23 3.23 0 0 1-.44-1.68 3.16 3.16 0 0 1 3.18-3.18 3.27 3.27 0 0 1 1.62.42 12.74 12.74 0 0 0 6.9 1.8c3.66 0 8-1.62 8-7.32v-2.94a11.28 11.28 0 0 1-9 4.55C5.52 97.97 0 92.87 0 83.21c0-9.48 5.46-14.76 12.78-14.76a11.16 11.16 0 0 1 8.94 4.44v-.3a3.84 3.84 0 0 1 7.68 0v23.58c0 11.05-8.52 13.75-15.66 13.75zm8-31.38a8.26 8.26 0 0 0-6.54-3.3c-4.32 0-7.32 3-7.32 8s3 8 7.32 8a8.44 8.44 0 0 0 6.54-3.3v-9.4zM59.95 86.1H42.08c.48 3.66 3.42 6.72 8.34 6.72a12.88 12.88 0 0 0 5.66-1.44 3.44 3.44 0 0 1 1.5-.36 3.19 3.19 0 0 1 3.24 3.06c0 3.42-7.38 4.8-11.22 4.8-8.85 0-15.52-5.91-15.52-15.24 0-8.4 6.18-15.18 15-15.18a13.83 13.83 0 0 1 13.56 9.78 15.32 15.32 0 0 1 .84 4.38 3.53 3.53 0 0 1-3.53 3.48zM49.08 74.52a7 7 0 0 0-7.13 6.45h14.27a6.71 6.71 0 0 0-7.14-6.45zM91.25 98.52a3.76 3.76 0 0 1-3.78-3.78v-14.1c0-4-2.1-5.4-5.34-5.4a8.25 8.25 0 0 0-6.6 3.42v16.08a3.81 3.81 0 0 1-7.62 0v-22.2a3.78 3.78 0 0 1 3.9-3.72 3.74 3.74 0 0 1 3.72 3.72v.43a13.27 13.27 0 0 1 10.14-4.5c6.36 0 9.42 3.6 9.42 9.24v17a3.78 3.78 0 0 1-3.84 3.81zM115.08 98.88c-9.54 0-15.3-7-15.3-15.24s5.76-15.18 15.3-15.18 15.36 7 15.36 15.18-5.77 15.24-15.36 15.24zm0-23.64c-4.74 0-7.38 3.9-7.38 8.4s2.64 8.46 7.38 8.46 7.44-3.9 7.44-8.46-2.71-8.4-7.44-8.4zM159.31 86.1h-17.88c.48 3.66 3.42 6.72 8.34 6.72a12.88 12.88 0 0 0 5.64-1.44 3.44 3.44 0 0 1 1.5-.36 3.19 3.19 0 0 1 3.24 3.06c0 3.42-7.38 4.8-11.22 4.8-8.82 0-15.48-5.94-15.48-15.24 0-8.4 6.18-15.18 15-15.18a13.83 13.83 0 0 1 13.56 9.78 15.32 15.32 0 0 1 .84 4.38 3.53 3.53 0 0 1-3.54 3.48zm-10.86-11.58a7 7 0 0 0-7.14 6.45h14.28a6.71 6.71 0 0 0-7.14-6.45zM179.61 109.92c-3.54 0-9.48-.9-11.22-3.6a3.23 3.23 0 0 1-.48-1.68 3.16 3.16 0 0 1 3.18-3.18 3.27 3.27 0 0 1 1.62.42 12.74 12.74 0 0 0 6.9 1.8c3.66 0 8-1.62 8-7.32v-2.94a11.28 11.28 0 0 1-8.94 4.56c-7.26 0-12.78-5.1-12.78-14.76 0-9.48 5.46-14.76 12.78-14.76a11.16 11.16 0 0 1 8.94 4.44v-.3a3.84 3.84 0 0 1 7.68 0v23.58c-.02 11.04-8.54 13.74-15.68 13.74zm8-31.38a8.26 8.26 0 0 0-6.54-3.3c-4.32 0-7.32 3-7.32 8s3 8 7.32 8a8.44 8.44 0 0 0 6.54-3.3v-9.4z"/><path fill="#fff" d="M.37 153.85h180.44"/><path d="M.37 151.01h180.44v5.67H.37zM191.87 150.83h5.67v6.02h-5.67z"/></svg>